<?xml version="1.0" encoding="UTF-8" standalone="no"?>
<!-- Created with Inkscape (http://www.inkscape.org/) -->

<svg
   width="65.930283mm"
   height="66.265541mm"
   viewBox="0 0 65.930283 66.265541"
   version="1.1"
   id="svg5"
   inkscape:version="1.1 (c68e22c387, 2021-05-23)"
   sodipodi:docname="logoSenacBranca.svg"
   xmlns:inkscape="http://www.inkscape.org/namespaces/inkscape"
   xmlns:sodipodi="http://sodipodi.sourceforge.net/DTD/sodipodi-0.dtd"
   xmlns="http://www.w3.org/2000/svg"
   xmlns:svg="http://www.w3.org/2000/svg">
  <sodipodi:namedview
     id="namedview7"
     pagecolor="#ffffff"
     bordercolor="#999999"
     borderopacity="1"
     inkscape:pageshadow="0"
     inkscape:pageopacity="0"
     inkscape:pagecheckerboard="0"
     inkscape:document-units="mm"
     showgrid="false"
     inkscape:snap-nodes="false"
     inkscape:zoom="1"
     inkscape:cx="201.5"
     inkscape:cy="189.5"
     inkscape:window-width="1366"
     inkscape:window-height="705"
     inkscape:window-x="-8"
     inkscape:window-y="-8"
     inkscape:window-maximized="1"
     inkscape:current-layer="layer1" />
  <defs
     id="defs2" />
  <g
     inkscape:label="Camada 1"
     inkscape:groupmode="layer"
     id="layer1"
     transform="translate(-48.9247,-141.96182)">
    <g
       id="g40524">
      <path
         style="fill:none;stroke:#ffffff;stroke-width:4.1;stroke-linecap:round;stroke-linejoin:round;stroke-miterlimit:4;stroke-dasharray:none;stroke-opacity:1;paint-order:fill markers stroke"
         id="path15168"
         sodipodi:type="arc"
         sodipodi:cx="81.889847"
         sodipodi:cy="175.0946"
         sodipodi:rx="30.915138"
         sodipodi:ry="31.082762"
         sodipodi:start="0"
         sodipodi:end="6.2722595"
         sodipodi:open="true"
         sodipodi:arc-type="arc"
         d="m 112.80499,175.0946 a 30.915138,31.082762 0 0 1 -30.8307,31.08265 30.915138,31.082762 0 0 1 -30.99912,-30.91284 30.915138,31.082762 0 0 1 30.66135,-31.25152 30.915138,31.082762 0 0 1 31.16662,30.74212" />
      <g
         id="g39917"
         transform="translate(-0.18708823,-3.4450912)"
         style="stroke:none;stroke-opacity:1">
        <path
           style="fill:#ced9f1;fill-opacity:0.333333;stroke:none;stroke-width:1.00157;stroke-linecap:round;stroke-linejoin:round;stroke-miterlimit:4;stroke-dasharray:none;stroke-opacity:1;paint-order:fill markers stroke"
           id="path21248"
           sodipodi:type="arc"
           sodipodi:cx="82.129066"
           sodipodi:cy="178.5101"
           sodipodi:rx="26.844231"
           sodipodi:ry="26.844231"
           sodipodi:start="0"
           sodipodi:end="6.2722595"
           sodipodi:open="true"
           sodipodi:arc-type="arc"
           d="M 108.9733,178.5101 A 26.844231,26.844231 0 0 1 82.20239,205.35423 26.844231,26.844231 0 0 1 55.285236,178.65675 26.844231,26.844231 0 0 1 81.909098,151.66677 26.844231,26.844231 0 0 1 108.97169,178.21681" />
        <path
           id="path3803"
           style="fill:#ffffff;fill-opacity:1;stroke:none;stroke-width:1.00157;stroke-linecap:butt;stroke-linejoin:miter;stroke-miterlimit:4;stroke-dasharray:none;stroke-opacity:1"
           d="m 98.306641,133.9043 c -0.565093,8.4e-4 -1.144489,0.0217 -1.738282,0.0625 -10.51627,0.7226 -15.043561,7.00531 -14.978515,14.02343 0.104258,11.24535 5.388059,19.17934 18.888676,19.17579 l -0.0957,-7.63282 c -4.213827,-0.42837 -8.445681,-2.00926 -9.347654,-6.20117 l 24.326174,-0.66601 c 3.7e-4,-10.67081 -5.56448,-18.77883 -17.054689,-18.76172 z m 0.107421,7.85156 c 4.637478,-0.0189 6.386238,3.22399 7.869138,6.33008 l -15.074216,0.0469 c 0.76111,-2.90868 2.629325,-6.36002 7.205078,-6.37695 z"
           transform="matrix(0.26458333,0,0,0.26458333,49.482835,143.64249)" />
        <path
           style="fill:#ffffff;fill-opacity:1;stroke:none;stroke-width:0.265;stroke-linecap:butt;stroke-linejoin:miter;stroke-miterlimit:4;stroke-dasharray:none;stroke-opacity:1"
           d="m 80.157091,187.44277 -0.05048,-5.17454 c -0.04339,-4.44746 7.844703,-3.69389 7.925883,-0.55532 l 0.12621,5.80559 -2.5999,0.0253 c 0,0 -0.0321,-3.57776 -0.0379,-4.85904 -0.007,-1.62619 -2.910103,-1.6291 -2.928029,-0.0505 -0.01432,1.26122 0,4.82117 0,4.82117 z"
           id="path6608"
           sodipodi:nodetypes="cssccsscc" />
        <path
           id="path10614"
           style="fill:#ffffff;fill-opacity:1;stroke:none;stroke-width:1.00157;stroke-linecap:butt;stroke-linejoin:miter;stroke-miterlimit:4;stroke-dasharray:none;stroke-opacity:1"
           d="m 160.20117,133.77539 0.18945,8.01367 c 4.13636,0.1629 8.00882,0.60801 8.39649,4.76953 l -12.61133,0.49414 c -10.94464,0.42822 -11.25978,12.55171 -7.42383,15.53516 6.59286,5.12765 19.19335,2.95759 20.13086,-1.09766 l -0.0957,4.53125 h 9.73047 l -0.57227,-17.36328 c 0.6107,-15.01379 -9.34391,-13.75069 -17.74414,-14.88281 z m 8.39453,18.41211 c 0.0488,6.07499 -3.05467,7.97722 -8.96679,7.77539 -4.02044,-0.13708 -5.31725,-7.34397 -0.28711,-7.53711 1.77955,-0.0688 6.96427,-0.23828 9.2539,-0.23828 z"
           transform="matrix(0.26458333,0,0,0.26458333,49.482835,143.64249)" />
        <path
           style="fill:#ffffff;fill-opacity:1;stroke:none;stroke-width:0.265;stroke-linecap:butt;stroke-linejoin:miter;stroke-miterlimit:4;stroke-dasharray:none;stroke-opacity:1"
           d="m 102.95032,177.95191 0.0252,2.19603 c -3.621326,-0.52914 -5.723826,4.96235 0,5.90654 l 0.0505,1.91837 c -5.081456,-0.35513 -6.279966,-2.64985 -6.285176,-5.07358 -0.009,-4.03651 4.691366,-4.86163 6.209436,-4.94736 z"
           id="path12888"
           sodipodi:nodetypes="ccccsc" />
        <path
           style="fill:#ffffff;fill-opacity:1;stroke:none;stroke-width:0.264583px;stroke-linecap:butt;stroke-linejoin:round;stroke-opacity:1"
           d="m 80.005641,177.87619 c 0.100398,-3.18387 0.533979,-4.36863 1.009666,-5.30075 l 2.473685,2.1203 z"
           id="path16550"
           sodipodi:nodetypes="cccc" />
        <path
           style="fill:#ffffff;fill-opacity:1;stroke:none;stroke-width:0.265;stroke-linecap:butt;stroke-linejoin:round;stroke-miterlimit:4;stroke-dasharray:none;stroke-opacity:1"
           d="m 80.691498,171.39954 1.570582,-2.79751 -3.064172,0.99488 z"
           id="path16552"
           sodipodi:nodetypes="cccc" />
        <path
           style="fill:#ffffff;fill-opacity:1;stroke:none;stroke-width:0.264583px;stroke-linecap:butt;stroke-linejoin:round;stroke-opacity:1"
           d="m 84.800574,166.45074 2.60282,-2.36519 c 1.19202,-1.08319 8.09971,2.1143 9.70962,3.5697 -5.1487,-1.47885 -9.15804,-1.62497 -12.31244,-1.20451 z"
           id="path16554"
           sodipodi:nodetypes="cscc" />
        <path
           style="fill:#ffffff;fill-opacity:1;stroke:none;stroke-width:0.264583px;stroke-linecap:butt;stroke-linejoin:round;stroke-opacity:1"
           d="m 99.775514,169.36005 c -4.13824,-1.90139 -8.21835,-1.98816 -10.2348,-2.04947 -2.01645,-0.0613 -6.39671,-0.62714 -8.399095,4.40549 l 2.927162,2.78438 c 6.256023,-4.77481 10.925633,-4.79036 15.706733,-5.1404 z"
           id="path16556"
           sodipodi:nodetypes="czccc" />
        <path
           style="fill:#ffffff;fill-opacity:1;stroke:none;stroke-width:0.265;stroke-linecap:butt;stroke-linejoin:round;stroke-miterlimit:4;stroke-dasharray:none;stroke-opacity:1"
           d="m 68.199576,179.83616 0.01087,-2.06081 c -2.948509,-0.30205 -5.317325,0.10593 -5.686832,2.31923 -0.654032,3.91758 4.086492,3.24765 5.84887,4.62243 0.56168,0.43814 -0.819086,2.27436 -4.811858,0.15402 l -1.637024,1.54347 c 3.893339,2.35202 7.150131,2.20505 8.699621,0.0467 3.169321,-4.41463 -5.447901,-4.721 -5.472342,-5.84652 -0.02154,-0.9918 0.676024,-1.15691 3.048697,-0.77854 z"
           id="path34982"
           sodipodi:nodetypes="ccssccsscc" />
      </g>
    </g>
  </g>
</svg>
